<svg xmlns="http://www.w3.org/2000/svg" fill="none" viewBox="0 0 1440 1036" height="1036" width="1440">
<path fill="url(#paint0_linear)" d="M-38.0012 296.173C-116.41 379.569 -45.3736 643.832 -17.0542 712.555C26.0001 865.5 -67.5161 736.716 -17.0542 868C-3.64347 902.891 14.1798 826.119 126 818.5C302.571 806.469 262.886 824.025 359.5 849.001C433 868 581.278 745.176 686 775.5C834.5 818.5 776.636 868.001 905.5 849.001C1273.76 794.703 1107.5 748 1490.5 818.5C1683.7 854.063 1401.37 615.009 1444.8 584.5C1505.3 542 1513.34 408.609 1444.8 381.272C1412.51 368.39 1499.93 231.04 1388.86 254.227C1267.4 279.582 1163.79 100.29 1039.16 190.281C914.537 280.272 908.12 72.2031 730.136 131.749C552.152 191.294 347.244 123.617 244.927 177.54C48.87 280.866 59.1875 192.801 -38.0012 296.173Z"></path>
<defs>
<linearGradient gradientUnits="userSpaceOnUse" y2="844.307" x2="1861.85" y1="337.598" x1="-80.4525" id="paint0_linear">
<stop stop-color="#0470DC"></stop>
<stop stop-color="#70DDFF" offset="1"></stop>
</linearGradient>
</defs>
</svg>
