<svg xmlns="http://www.w3.org/2000/svg" fill="none" viewBox="0 0 96 384" height="384" width="96">
<path fill="#70DDFF" d="M29.8439 84.8359H23.9492V105.346H29.8439V84.8359Z"></path>
<path fill="#70DDFF" d="M78.9578 79.2412H23.9492V84.8362H78.9578V79.2412Z"></path>
<path fill="url(#paint0_linear)" d="M28.3096 139.835C39.3433 139.835 48.2878 131.346 48.2878 120.874C48.2878 110.401 39.3433 101.912 28.3096 101.912C17.2759 101.912 8.3313 110.401 8.3313 120.874C8.3313 131.346 17.2759 139.835 28.3096 139.835Z"></path>
<path fill="#FFEB3B" d="M28.3097 135.282C38.4782 135.282 46.7213 127.459 46.7213 117.808C46.7213 108.157 38.4782 100.333 28.3097 100.333C18.1412 100.333 9.89795 108.157 9.89795 117.808C9.89795 127.459 18.1412 135.282 28.3097 135.282Z"></path>
<path fill="#70DDFF" d="M78.9578 25.1616H73.0626V303.009H78.9578V25.1616Z"></path>
<path fill="#4F79A4" d="M76.4543 28.4726C84.5534 28.4726 91.119 22.2411 91.119 14.5541C91.119 6.86723 84.5534 0.635742 76.4543 0.635742C68.3551 0.635742 61.7894 6.86723 61.7894 14.5541C61.7894 22.2411 68.3551 28.4726 76.4543 28.4726Z"></path>
<path fill="#70DDFF" d="M55.3774 99.751H0.369141V105.346H55.3774V99.751Z"></path>
<path fill="#70DDFF" d="M76.7771 383.208C87.0972 383.208 95.5278 385.554 95.5278 375.759V304.557C95.5151 299.839 93.5359 295.318 90.0226 291.981C86.5094 288.644 81.7476 286.761 76.7771 286.745C71.8066 286.761 67.0448 288.644 63.5316 291.981C60.0184 295.318 58.0393 299.839 58.0265 304.557V375.759C58.0265 385.554 66.3924 383.208 76.7771 383.208Z"></path>
<defs>
<linearGradient gradientUnits="userSpaceOnUse" y2="13188.4" x2="-21836" y1="14127" x1="-21836" id="paint0_linear">
<stop stop-opacity="0.25" stop-color="#808080"></stop>
<stop stop-opacity="0.12" stop-color="#808080" offset="0.54"></stop>
<stop stop-opacity="0.1" stop-color="#808080" offset="1"></stop>
</linearGradient>
</defs>
</svg>
