<svg xmlns="http://www.w3.org/2000/svg" fill="none" viewBox="0 0 401 463" height="463" width="401">
<path fill="url(#paint0_linear)" d="M230.051 161.623C236.696 154.407 241.632 145.922 244.526 136.74C247.42 127.559 248.204 117.895 246.826 108.401C245.448 98.9071 241.94 89.8043 236.539 81.7074C231.137 73.6104 223.968 66.7077 215.515 61.4655C219.886 55.0385 222.203 47.5477 222.186 39.8981C222.186 18.2694 204.129 0.733398 181.809 0.733398C172.997 0.79057 164.445 3.57383 157.45 8.66101C150.455 13.7482 145.399 20.8618 143.048 28.9228C137.796 20.375 130.282 13.2776 121.252 8.33321C112.221 3.38886 101.986 0.769125 91.5603 0.733398C58.3549 0.733398 31.432 26.7921 31.432 59.1049C31.4268 65.9751 32.6725 72.7945 35.1143 79.262C33.8869 79.1701 32.6756 79.0781 31.432 79.0781C4.76749 79.0781 -16.8419 100.048 -16.8419 125.922C-16.8419 127.455 -16.745 129.095 -16.5835 130.659C-27.4331 135.277 -36.6356 142.787 -43.0724 152.276C-49.5092 161.765 -52.903 172.824 -52.8413 184.11C-52.8413 216.3 -25.9992 242.359 7.09317 242.359C10.5751 242.357 14.05 242.064 17.4779 241.485C17.3003 243.416 17.1872 245.378 17.1872 247.356C17.1872 283.409 47.3079 312.641 84.4379 312.641C98.1985 312.634 111.612 308.539 122.795 300.929C131.786 308.423 143.341 312.558 155.306 312.564C183.069 312.564 205.551 290.736 205.551 263.788C205.551 262.623 205.454 261.474 205.373 260.339H205.551C235.267 260.339 259.364 236.948 259.364 208.115C259.409 198.565 256.702 189.185 251.535 180.991C246.369 172.796 238.939 166.098 230.051 161.623Z"></path>
<path fill="#DCE7FF" d="M120.647 92.2915H112.782V455.917H120.647V92.2915Z"></path>
<path fill="#DCE7FF" d="M176.558 133.332L112.068 199.431L117.839 204.503L182.329 138.404L176.558 133.332Z"></path>
<path fill="#DCE7FF" d="M50.4289 208.688L45.7394 214.681L112.605 261.813L117.294 255.82L50.4289 208.688Z"></path>
<path fill="url(#paint1_linear)" d="M145.406 234.794C135.305 224.595 129.675 211.129 129.659 197.132C129.716 187.475 132.408 177.998 137.475 169.624C142.542 161.25 149.81 154.265 158.569 149.352C154.64 143.943 152.533 137.529 152.528 130.958C152.528 112.564 168.84 97.5417 188.98 97.5417C196.753 97.4696 204.345 99.7673 210.64 104.097C216.934 108.426 221.598 114.559 223.946 121.592C228.913 114.175 235.785 108.078 243.915 103.871C252.045 99.6641 261.167 97.4863 270.427 97.5417C300.419 97.5417 324.741 119.83 324.741 147.329C324.755 153.205 323.639 159.033 321.446 164.528C322.545 164.451 323.643 164.375 324.773 164.375C348.838 164.375 368.38 182.263 368.38 204.336C368.378 205.688 368.302 207.039 368.154 208.383C377.745 212.071 385.968 218.378 391.781 226.504C397.594 234.63 400.736 244.21 400.81 254.032C400.81 281.455 376.584 303.666 346.674 303.666C343.534 303.665 340.401 303.414 337.306 302.915C337.468 304.57 337.565 306.241 337.565 307.927C337.565 338.692 310.383 363.632 276.839 363.632C264.542 363.638 252.521 360.17 242.309 353.668C234.034 360.115 223.653 363.627 212.947 363.601C187.882 363.601 167.565 344.961 167.565 321.984C167.565 320.987 167.661 320.006 167.726 319.041H167.565C140.739 319.041 118.984 299.113 118.984 274.48C119.047 266.184 121.556 258.07 126.225 251.057C130.895 244.043 137.539 238.41 145.406 234.794Z"></path>
<path fill="#DCE7FF" d="M253.243 176.53H243.423V486.077H253.243V176.53Z"></path>
<path fill="#DCE7FF" d="M194.598 209.608L187.586 216.132L245.823 272.517L252.835 265.992L194.598 209.608Z"></path>
<path fill="#DCE7FF" d="M306.896 273.663L246.521 313.877L252.161 321.506L312.537 281.292L306.896 273.663Z"></path>
<path fill="#70DDFF" d="M349.516 153.836H343.621V174.346H349.516V153.836Z"></path>
<path fill="#70DDFF" d="M349.516 148.241H294.507V153.836H349.516V148.241Z"></path>
<path fill="url(#paint2_linear)" d="M345.139 208.835C356.173 208.835 365.117 200.346 365.117 189.874C365.117 179.401 356.173 170.912 345.139 170.912C334.106 170.912 325.161 179.401 325.161 189.874C325.161 200.346 334.106 208.835 345.139 208.835Z"></path>
<path fill="#FFEB3B" d="M345.139 204.282C355.308 204.282 363.551 196.459 363.551 186.808C363.551 177.157 355.308 169.333 345.139 169.333C334.971 169.333 326.728 177.157 326.728 186.808C326.728 196.459 334.971 204.282 345.139 204.282Z"></path>
<path fill="#70DDFF" d="M300.402 94.1616H294.507V372.009H300.402V94.1616Z"></path>
<path fill="#4F79A4" d="M297.011 97.4726C305.11 97.4726 311.675 91.2411 311.675 83.5541C311.675 75.8672 305.11 69.6357 297.011 69.6357C288.912 69.6357 282.346 75.8672 282.346 83.5541C282.346 91.2411 288.912 97.4726 297.011 97.4726Z"></path>
<path fill="#70DDFF" d="M373.096 168.751H318.087V174.346H373.096V168.751Z"></path>
<path fill="#70DDFF" d="M296.672 452.208C286.351 452.208 277.921 454.554 277.921 444.759V373.557C277.934 368.839 279.913 364.318 283.426 360.981C286.939 357.644 291.701 355.761 296.672 355.745C301.642 355.761 306.404 357.644 309.917 360.981C313.43 364.318 315.41 368.839 315.422 373.557V444.759C315.422 454.554 306.992 452.208 296.672 452.208Z"></path>
<defs>
<linearGradient gradientUnits="userSpaceOnUse" y2="304.54" x2="124.5" y1="34.54" x1="20.5" id="paint0_linear">
<stop stop-color="#0470DC"></stop>
<stop stop-color="#70DDFF" offset="1"></stop>
</linearGradient>
<linearGradient gradientUnits="userSpaceOnUse" y2="444.569" x2="333" y1="173.569" x1="216" id="paint1_linear">
<stop stop-color="#0470DC"></stop>
<stop stop-color="#6BD7FD" offset="1"></stop>
<stop stop-color="#70DDFF" offset="1"></stop>
</linearGradient>
<linearGradient gradientUnits="userSpaceOnUse" y2="4632.94" x2="10422.5" y1="5571.53" x1="10422.5" id="paint2_linear">
<stop stop-opacity="0.25" stop-color="#808080"></stop>
<stop stop-opacity="0.12" stop-color="#808080" offset="0.54"></stop>
<stop stop-opacity="0.1" stop-color="#808080" offset="1"></stop>
</linearGradient>
</defs>
</svg>
