<svg xmlns="http://www.w3.org/2000/svg" fill="none" viewBox="0 0 642 391" height="391" width="642">
<path fill="#0470DC" d="M0.0797729 200.716C0.0797729 200.623 0.0797729 200.525 0.0797729 200.427C0.407043 193.475 1.66418 186.599 3.81763 179.981C3.94037 179.607 4.06311 179.226 4.19202 178.858C9.67511 162.894 20.1703 149.13 34.1131 139.617C49.7418 128.968 68.7129 124.375 87.4814 126.695C106.25 129.015 123.531 138.09 136.097 152.225C137.412 144.774 139.491 137.478 142.302 130.453C162.781 133.042 183.45 133.813 204.065 132.755C191.432 138.58 178.334 143.337 164.907 146.977L165.386 148.757C180.454 144.665 195.109 139.178 209.159 132.368L213.401 130.312L208.699 130.619C186.797 132.053 164.809 131.422 143.026 128.734C147.739 117.493 154.276 107.107 162.372 97.9948C197.7 94.4347 232.753 87.0199 265.485 72.3192L264.73 70.6435C232.869 84.9636 198.725 92.3232 164.256 95.9447C175.924 83.4366 190.339 73.8126 206.365 67.833C222.39 61.8533 239.586 59.6817 256.595 61.4897C273.603 63.2976 289.959 69.0356 304.369 78.2505C318.779 87.4653 330.85 99.9047 339.628 114.586C342.893 82.9243 356.044 53.0946 377.215 29.3281C396.063 36.8594 415.523 42.7553 435.382 46.9505C465.247 53.2986 495.812 55.7313 526.305 54.1873C513.672 60.0127 500.573 64.77 487.147 68.4092L487.625 70.1893C502.69 66.0966 517.34 60.61 531.387 53.8006L535.628 51.7443L530.927 52.0513C478.95 55.4654 426.867 47.2129 378.492 27.8979C380.312 25.9051 382.186 23.9573 384.114 22.0545C444.521 23.2821 510.31 22.6683 569.87 0.98243C591.941 14.6057 610.156 33.6527 622.782 56.3095C635.408 78.9663 642.024 104.478 642 130.416C642 158.934 634.162 198.15 620.518 237.495C614.438 255.104 607.283 272.323 599.092 289.055C594.924 297.525 590.499 305.757 585.853 313.638C580.251 323.204 574.084 332.427 567.384 341.259C566.181 342.843 564.964 344.398 563.732 345.924C556.867 354.614 549.162 362.605 540.728 369.783C539.022 371.207 537.306 372.563 535.579 373.852C530.951 377.351 526.021 380.432 520.849 383.059C511.845 387.571 502.552 390.216 493.045 390.597C492.284 390.628 491.517 390.646 490.756 390.646V390.959H78.3044V390.646H77.9975C75.6204 390.637 73.2623 390.222 71.025 389.419C56.442 384.244 43.0128 363.467 31.8483 337.208C29.3932 331.383 27.0118 325.294 24.7716 319.033C22.7953 313.509 20.9172 307.88 19.1373 302.196C13.9614 285.533 9.62878 268.62 6.15607 251.52C2.2218 232.05 0.0184326 215.03 0.0184326 204.257C0 203.054 0 201.888 0.0797729 200.716Z" opacity="0.1"></path>
</svg>
