<svg xmlns="http://www.w3.org/2000/svg" fill="none" viewBox="0 0 250 270" height="270" width="250">
<path fill="#70DDFF" d="M0.942337 42.0825H79.7193V25.0432C79.7193 23.9622 80.1487 22.9256 80.913 22.1612C81.6773 21.3969 82.7139 20.9675 83.7948 20.9675H106.928V2.81718C106.928 2.13671 107.198 1.4841 107.679 1.00293C108.16 0.521768 108.813 0.251465 109.493 0.251465H139.292C139.972 0.251465 140.625 0.521768 141.106 1.00293C141.587 1.4841 141.857 2.13671 141.857 2.81718V20.9613H169.053C170.134 20.9613 171.171 21.3907 171.935 22.1551C172.699 22.9194 173.129 23.9561 173.129 25.037V42.0763H248.247C248.466 42.0779 248.675 42.166 248.829 42.3212C248.983 42.4764 249.07 42.6863 249.07 42.905V269.112C249.07 269.33 248.983 269.54 248.829 269.695C248.675 269.851 248.466 269.939 248.247 269.94H198.324C198.104 269.94 197.893 269.853 197.738 269.698C197.582 269.542 197.495 269.331 197.495 269.112V238.679C197.493 238.46 197.406 238.25 197.251 238.095C197.096 237.94 196.886 237.852 196.666 237.85H175.577C175.358 237.852 175.148 237.94 174.993 238.095C174.838 238.25 174.75 238.46 174.749 238.679V269.112C174.749 269.33 174.662 269.54 174.508 269.695C174.354 269.851 174.145 269.939 173.926 269.94H75.2634C75.0441 269.939 74.8343 269.851 74.6792 269.696C74.5242 269.541 74.4364 269.331 74.4348 269.112V238.679C74.4348 238.46 74.3483 238.25 74.1943 238.095C74.0402 237.94 73.831 237.852 73.6124 237.85H52.5233C52.3036 237.85 52.0928 237.938 51.9374 238.093C51.782 238.248 51.6947 238.459 51.6947 238.679V269.112C51.6931 269.331 51.6053 269.541 51.4503 269.696C51.2952 269.851 51.0854 269.939 50.8661 269.94H0.942337C0.723083 269.939 0.51329 269.851 0.358246 269.696C0.203201 269.541 0.115372 269.331 0.11377 269.112V42.9111C0.115372 42.6918 0.203201 42.482 0.358246 42.3269C0.51329 42.1719 0.723083 42.0841 0.942337 42.0825ZM206.431 227.281C206.431 227.499 206.518 227.708 206.672 227.862C206.827 228.016 207.036 228.103 207.254 228.103H238.09C238.198 228.104 238.306 228.083 238.406 228.042C238.507 228.001 238.598 227.941 238.675 227.864C238.752 227.788 238.813 227.697 238.855 227.597C238.897 227.497 238.918 227.389 238.918 227.281V216.766C238.918 216.546 238.831 216.336 238.675 216.18C238.52 216.025 238.309 215.937 238.09 215.937H207.254C207.035 215.939 206.826 216.027 206.672 216.182C206.518 216.338 206.431 216.547 206.431 216.766V227.281ZM206.431 200.064C206.431 200.173 206.451 200.28 206.492 200.381C206.533 200.481 206.594 200.573 206.67 200.65C206.747 200.727 206.838 200.788 206.938 200.83C207.038 200.872 207.145 200.893 207.254 200.893H238.09C238.199 200.894 238.307 200.873 238.408 200.832C238.509 200.79 238.6 200.729 238.677 200.652C238.754 200.575 238.815 200.483 238.857 200.382C238.898 200.281 238.919 200.173 238.918 200.064V189.538C238.919 189.429 238.898 189.32 238.857 189.219C238.815 189.119 238.754 189.027 238.677 188.95C238.6 188.873 238.509 188.812 238.408 188.77C238.307 188.729 238.199 188.708 238.09 188.709H207.254C207.145 188.709 207.038 188.73 206.938 188.772C206.838 188.814 206.747 188.875 206.67 188.952C206.594 189.029 206.533 189.12 206.492 189.221C206.451 189.321 206.431 189.429 206.431 189.538V200.064ZM206.431 172.854C206.431 173.073 206.518 173.283 206.672 173.438C206.826 173.593 207.035 173.681 207.254 173.683H238.09C238.198 173.683 238.306 173.661 238.407 173.62C238.507 173.578 238.599 173.517 238.675 173.44C238.752 173.363 238.813 173.272 238.855 173.171C238.897 173.071 238.918 172.963 238.918 172.854V162.321C238.918 162.102 238.831 161.891 238.675 161.735C238.52 161.58 238.309 161.493 238.09 161.493H207.254C207.035 161.494 206.826 161.582 206.672 161.738C206.518 161.893 206.431 162.103 206.431 162.321V172.854ZM206.431 145.638C206.431 145.747 206.451 145.854 206.492 145.955C206.533 146.055 206.594 146.147 206.67 146.224C206.747 146.301 206.838 146.362 206.938 146.403C207.038 146.445 207.145 146.467 207.254 146.467H238.09C238.199 146.467 238.307 146.447 238.408 146.405C238.509 146.364 238.6 146.303 238.677 146.226C238.754 146.149 238.815 146.057 238.857 145.956C238.898 145.855 238.919 145.747 238.918 145.638V135.13C238.919 135.021 238.898 134.912 238.857 134.812C238.815 134.711 238.754 134.619 238.677 134.542C238.6 134.465 238.509 134.404 238.408 134.362C238.307 134.321 238.199 134.3 238.09 134.301H207.254C207.145 134.301 207.038 134.322 206.938 134.364C206.838 134.406 206.747 134.467 206.67 134.544C206.594 134.621 206.533 134.712 206.492 134.813C206.451 134.913 206.431 135.021 206.431 135.13V145.638ZM206.431 118.428C206.431 118.647 206.518 118.856 206.672 119.012C206.826 119.167 207.035 119.255 207.254 119.257H238.09C238.309 119.257 238.52 119.169 238.675 119.014C238.831 118.858 238.918 118.648 238.918 118.428V107.895C238.918 107.786 238.897 107.679 238.855 107.579C238.813 107.479 238.752 107.388 238.675 107.311C238.598 107.235 238.507 107.174 238.406 107.133C238.306 107.092 238.198 107.072 238.09 107.072H207.254C207.036 107.072 206.827 107.159 206.672 107.313C206.518 107.468 206.431 107.677 206.431 107.895V118.428ZM206.431 91.2178C206.431 91.4359 206.518 91.6451 206.672 91.7994C206.827 91.9536 207.036 92.0403 207.254 92.0403H238.09C238.198 92.0411 238.306 92.0204 238.406 91.9795C238.507 91.9385 238.598 91.878 238.675 91.8016C238.752 91.7251 238.813 91.6342 238.855 91.534C238.897 91.4338 238.918 91.3263 238.918 91.2178V80.6848C238.918 80.4651 238.831 80.2543 238.675 80.0989C238.52 79.9435 238.309 79.8562 238.09 79.8562H207.254C207.035 79.8578 206.826 79.9459 206.672 80.1011C206.518 80.2563 206.431 80.4661 206.431 80.6848V91.2178ZM206.431 64.0015C206.431 64.1101 206.451 64.2177 206.492 64.3182C206.533 64.4187 206.594 64.5101 206.67 64.5871C206.747 64.6642 206.838 64.7253 206.938 64.767C207.038 64.8087 207.145 64.8302 207.254 64.8302H238.09C238.199 64.831 238.307 64.8101 238.408 64.7688C238.509 64.7274 238.6 64.6664 238.677 64.5893C238.754 64.5122 238.815 64.4205 238.857 64.3196C238.898 64.2187 238.919 64.1106 238.918 64.0015V53.4932C238.919 53.3841 238.898 53.276 238.857 53.1751C238.815 53.0742 238.754 52.9825 238.677 52.9054C238.6 52.8283 238.509 52.7673 238.408 52.7259C238.307 52.6846 238.199 52.6637 238.09 52.6645H207.254C207.145 52.6645 207.038 52.686 206.938 52.7277C206.838 52.7694 206.747 52.8306 206.67 52.9076C206.594 52.9846 206.533 53.076 206.492 53.1765C206.451 53.277 206.431 53.3846 206.431 53.4932V64.0015ZM133.326 227.274C133.326 227.383 133.347 227.49 133.389 227.591C133.431 227.691 133.492 227.782 133.569 227.858C133.646 227.935 133.737 227.995 133.838 228.036C133.938 228.077 134.046 228.098 134.154 228.097H164.99C165.209 228.097 165.418 228.01 165.574 227.856C165.729 227.702 165.817 227.493 165.819 227.274V216.766C165.817 216.547 165.729 216.337 165.574 216.182C165.419 216.027 165.209 215.939 164.99 215.937H134.154C133.935 215.937 133.724 216.025 133.568 216.18C133.413 216.336 133.326 216.546 133.326 216.766V227.274ZM133.326 200.058C133.325 200.167 133.346 200.275 133.387 200.376C133.428 200.477 133.489 200.569 133.567 200.646C133.644 200.723 133.735 200.784 133.836 200.825C133.937 200.867 134.045 200.888 134.154 200.887H164.99C165.099 200.887 165.206 200.865 165.307 200.824C165.408 200.782 165.499 200.721 165.576 200.644C165.653 200.567 165.714 200.476 165.755 200.375C165.797 200.275 165.819 200.167 165.819 200.058V189.538C165.819 189.429 165.797 189.321 165.755 189.22C165.714 189.12 165.653 189.029 165.576 188.952C165.499 188.875 165.408 188.814 165.307 188.772C165.206 188.73 165.099 188.709 164.99 188.709H134.154C134.045 188.708 133.937 188.729 133.836 188.77C133.735 188.812 133.644 188.873 133.567 188.95C133.489 189.027 133.428 189.119 133.387 189.219C133.346 189.32 133.325 189.429 133.326 189.538V200.058ZM133.326 172.848C133.326 173.068 133.413 173.279 133.568 173.434C133.724 173.589 133.935 173.677 134.154 173.677H164.99C165.209 173.675 165.419 173.587 165.574 173.432C165.729 173.277 165.817 173.067 165.819 172.848V162.321C165.817 162.102 165.729 161.892 165.574 161.737C165.419 161.582 165.209 161.494 164.99 161.493H134.154C133.935 161.493 133.724 161.58 133.568 161.735C133.413 161.891 133.326 162.102 133.326 162.321V172.848ZM133.326 145.632C133.325 145.741 133.346 145.849 133.387 145.95C133.428 146.051 133.489 146.143 133.567 146.22C133.644 146.297 133.735 146.358 133.836 146.399C133.937 146.44 134.045 146.461 134.154 146.461H164.99C165.099 146.461 165.206 146.439 165.307 146.397C165.408 146.356 165.499 146.295 165.576 146.218C165.653 146.141 165.714 146.05 165.755 145.949C165.797 145.848 165.819 145.741 165.819 145.632V135.13C165.819 135.021 165.797 134.913 165.755 134.813C165.714 134.712 165.653 134.621 165.576 134.544C165.499 134.467 165.408 134.406 165.307 134.364C165.206 134.322 165.099 134.301 164.99 134.301H134.154C134.045 134.3 133.937 134.321 133.836 134.362C133.735 134.404 133.644 134.465 133.567 134.542C133.489 134.619 133.428 134.711 133.387 134.812C133.346 134.912 133.325 135.021 133.326 135.13V145.632ZM133.326 118.422C133.326 118.642 133.413 118.852 133.568 119.008C133.724 119.163 133.935 119.25 134.154 119.25H164.99C165.209 119.249 165.419 119.161 165.574 119.006C165.729 118.851 165.817 118.641 165.819 118.422V107.895C165.817 107.676 165.729 107.467 165.574 107.313C165.418 107.159 165.209 107.072 164.99 107.072H134.154C134.046 107.072 133.938 107.092 133.838 107.133C133.737 107.174 133.646 107.235 133.569 107.311C133.492 107.388 133.431 107.479 133.389 107.579C133.347 107.679 133.326 107.786 133.326 107.895V118.422ZM133.326 91.2117C133.326 91.3202 133.347 91.4276 133.389 91.5278C133.431 91.628 133.492 91.719 133.569 91.7954C133.646 91.8719 133.737 91.9324 133.838 91.9733C133.938 92.0143 134.046 92.035 134.154 92.0342H164.99C165.209 92.0342 165.418 91.9477 165.574 91.7936C165.729 91.6395 165.817 91.4304 165.819 91.2117V80.6848C165.817 80.4656 165.729 80.2557 165.574 80.1007C165.419 79.9456 165.209 79.8578 164.99 79.8562H134.154C133.935 79.8562 133.724 79.9435 133.568 80.0989C133.413 80.2543 133.326 80.4651 133.326 80.6848V91.2117ZM133.326 63.9954C133.325 64.1045 133.346 64.2126 133.387 64.3135C133.428 64.4144 133.489 64.5061 133.567 64.5832C133.644 64.6603 133.735 64.7213 133.836 64.7626C133.937 64.804 134.045 64.8249 134.154 64.824H164.99C165.099 64.824 165.206 64.8026 165.307 64.761C165.408 64.7193 165.499 64.6583 165.576 64.5814C165.653 64.5044 165.714 64.413 165.755 64.3125C165.797 64.212 165.819 64.1042 165.819 63.9954V53.4932C165.819 53.3843 165.797 53.2766 165.755 53.176C165.714 53.0755 165.653 52.9842 165.576 52.9072C165.499 52.8303 165.408 52.7692 165.307 52.7276C165.206 52.686 165.099 52.6645 164.99 52.6645H134.154C134.045 52.6637 133.937 52.6846 133.836 52.7259C133.735 52.7673 133.644 52.8283 133.567 52.9054C133.489 52.9825 133.428 53.0742 133.387 53.1751C133.346 53.276 133.325 53.3841 133.326 53.4932V63.9954ZM83.3712 227.268C83.3712 227.377 83.3927 227.484 83.4344 227.585C83.4761 227.685 83.5373 227.776 83.6143 227.852C83.6913 227.929 83.7827 227.989 83.8832 228.03C83.9837 228.071 84.0913 228.092 84.1998 228.091H115.035C115.254 228.091 115.464 228.004 115.619 227.85C115.774 227.696 115.862 227.487 115.864 227.268V216.766C115.862 216.547 115.775 216.337 115.62 216.182C115.465 216.027 115.255 215.939 115.035 215.937H84.1998C83.9801 215.937 83.7693 216.025 83.6139 216.18C83.4585 216.336 83.3712 216.546 83.3712 216.766V227.268ZM83.3712 200.052C83.3704 200.161 83.3913 200.269 83.4326 200.37C83.474 200.471 83.535 200.563 83.6121 200.64C83.6892 200.717 83.7809 200.778 83.8818 200.819C83.9827 200.861 84.0908 200.882 84.1998 200.881H115.035C115.144 200.881 115.252 200.859 115.353 200.818C115.453 200.776 115.544 200.715 115.621 200.638C115.698 200.561 115.759 200.47 115.801 200.369C115.843 200.269 115.864 200.161 115.864 200.052V189.538C115.864 189.429 115.843 189.321 115.801 189.22C115.759 189.12 115.698 189.029 115.621 188.952C115.544 188.875 115.453 188.814 115.353 188.772C115.252 188.73 115.144 188.709 115.035 188.709H84.1998C84.0908 188.708 83.9827 188.729 83.8818 188.77C83.7809 188.812 83.6892 188.873 83.6121 188.95C83.535 189.027 83.474 189.119 83.4326 189.219C83.3913 189.32 83.3704 189.429 83.3712 189.538V200.052ZM83.3712 172.842C83.3712 173.062 83.4585 173.273 83.6139 173.428C83.7693 173.583 83.9801 173.671 84.1998 173.671H115.035C115.255 173.669 115.465 173.581 115.62 173.426C115.775 173.271 115.862 173.061 115.864 172.842V162.321C115.862 162.102 115.775 161.892 115.62 161.737C115.465 161.582 115.255 161.494 115.035 161.493H84.1998C83.9801 161.493 83.7693 161.58 83.6139 161.735C83.4585 161.891 83.3712 162.102 83.3712 162.321V172.842ZM83.3712 145.626C83.3704 145.735 83.3913 145.843 83.4326 145.944C83.474 146.045 83.535 146.136 83.6121 146.213C83.6892 146.291 83.7809 146.352 83.8818 146.393C83.9827 146.434 84.0908 146.455 84.1998 146.454H115.035C115.144 146.454 115.252 146.433 115.353 146.391C115.453 146.35 115.544 146.289 115.621 146.212C115.698 146.135 115.759 146.043 115.801 145.943C115.843 145.842 115.864 145.735 115.864 145.626V135.13C115.864 135.021 115.843 134.913 115.801 134.813C115.759 134.712 115.698 134.621 115.621 134.544C115.544 134.467 115.453 134.406 115.353 134.364C115.252 134.322 115.144 134.301 115.035 134.301H84.1998C84.0908 134.3 83.9827 134.321 83.8818 134.362C83.7809 134.404 83.6892 134.465 83.6121 134.542C83.535 134.619 83.474 134.711 83.4326 134.812C83.3913 134.912 83.3704 135.021 83.3712 135.13V145.626ZM83.3712 118.416C83.3712 118.635 83.4585 118.846 83.6139 119.002C83.7693 119.157 83.9801 119.244 84.1998 119.244H115.035C115.255 119.243 115.465 119.155 115.62 119C115.775 118.845 115.862 118.635 115.864 118.416V107.895C115.862 107.676 115.774 107.467 115.619 107.313C115.464 107.159 115.254 107.072 115.035 107.072H84.1998C84.0913 107.072 83.9837 107.092 83.8832 107.133C83.7827 107.174 83.6913 107.235 83.6143 107.311C83.5373 107.388 83.4761 107.479 83.4344 107.579C83.3927 107.679 83.3712 107.786 83.3712 107.895V118.416ZM83.3712 91.2055C83.3712 91.314 83.3927 91.4215 83.4344 91.5217C83.4761 91.6219 83.5373 91.7128 83.6143 91.7893C83.6913 91.8658 83.7827 91.9262 83.8832 91.9672C83.9837 92.0081 84.0913 92.0288 84.1998 92.028H115.035C115.254 92.028 115.464 91.9416 115.619 91.7875C115.774 91.6334 115.862 91.4242 115.864 91.2055V80.6848C115.862 80.4656 115.775 80.2557 115.62 80.1007C115.465 79.9456 115.255 79.8578 115.035 79.8562H84.1998C83.9801 79.8562 83.7693 79.9435 83.6139 80.0989C83.4585 80.2543 83.3712 80.4651 83.3712 80.6848V91.2055ZM83.3712 63.9893C83.3704 64.0983 83.3913 64.2064 83.4326 64.3073C83.474 64.4082 83.535 64.4999 83.6121 64.577C83.6892 64.6541 83.7809 64.7151 83.8818 64.7565C83.9827 64.7979 84.0908 64.8187 84.1998 64.8179H115.035C115.144 64.8179 115.252 64.7965 115.353 64.7548C115.453 64.7132 115.544 64.6522 115.621 64.5752C115.698 64.4983 115.759 64.4069 115.801 64.3064C115.843 64.2058 115.864 64.0981 115.864 63.9893V53.4932C115.864 53.3843 115.843 53.2766 115.801 53.176C115.759 53.0755 115.698 52.9842 115.621 52.9072C115.544 52.8303 115.453 52.7692 115.353 52.7276C115.252 52.686 115.144 52.6645 115.035 52.6645H84.1998C84.0908 52.6637 83.9827 52.6846 83.8818 52.7259C83.7809 52.7673 83.6892 52.8283 83.6121 52.9054C83.535 52.9825 83.474 53.0742 83.4326 53.1751C83.3913 53.276 83.3704 53.3841 83.3712 53.4932V63.9893ZM10.2655 227.262C10.2671 227.481 10.3551 227.69 10.5103 227.844C10.6655 227.998 10.8754 228.085 11.0941 228.085H41.9297C42.0382 228.085 42.1458 228.065 42.2463 228.024C42.3468 227.983 42.4382 227.922 42.5152 227.846C42.5923 227.77 42.6534 227.679 42.6951 227.578C42.7368 227.478 42.7583 227.371 42.7583 227.262V216.766C42.7583 216.546 42.671 216.336 42.5156 216.18C42.3602 216.025 42.1495 215.937 41.9297 215.937H11.0879C10.8687 215.939 10.6588 216.027 10.5038 216.182C10.3488 216.337 10.261 216.547 10.2594 216.766L10.2655 227.262ZM10.2655 200.046C10.2655 200.266 10.3528 200.476 10.5082 200.632C10.6636 200.787 10.8743 200.875 11.0941 200.875H41.9297C42.0387 200.875 42.1469 200.855 42.2478 200.813C42.3486 200.772 42.4403 200.711 42.5174 200.634C42.5945 200.557 42.6555 200.465 42.6969 200.364C42.7382 200.263 42.7591 200.155 42.7583 200.046V189.538C42.7591 189.429 42.7382 189.32 42.6969 189.219C42.6555 189.119 42.5945 189.027 42.5174 188.95C42.4403 188.873 42.3486 188.812 42.2478 188.77C42.1469 188.729 42.0387 188.708 41.9297 188.709H11.0879C10.8682 188.709 10.6574 188.796 10.502 188.952C10.3466 189.107 10.2594 189.318 10.2594 189.538L10.2655 200.046ZM10.2655 172.836C10.2671 173.055 10.3549 173.265 10.5099 173.42C10.665 173.575 10.8748 173.663 11.0941 173.664H41.9297C42.1495 173.664 42.3602 173.577 42.5156 173.422C42.671 173.266 42.7583 173.056 42.7583 172.836V162.321C42.7583 162.102 42.671 161.891 42.5156 161.735C42.3602 161.58 42.1495 161.493 41.9297 161.493H11.0879C10.8687 161.494 10.6588 161.582 10.5038 161.737C10.3488 161.892 10.261 162.102 10.2594 162.321L10.2655 172.836ZM10.2655 145.62C10.2655 145.839 10.3528 146.05 10.5082 146.206C10.6636 146.361 10.8743 146.448 11.0941 146.448H41.9297C42.0387 146.449 42.1469 146.428 42.2478 146.387C42.3486 146.345 42.4403 146.284 42.5174 146.207C42.5945 146.13 42.6555 146.039 42.6969 145.938C42.7382 145.837 42.7591 145.729 42.7583 145.62V135.13C42.7591 135.021 42.7382 134.912 42.6969 134.812C42.6555 134.711 42.5945 134.619 42.5174 134.542C42.4403 134.465 42.3486 134.404 42.2478 134.362C42.1469 134.321 42.0387 134.3 41.9297 134.301H11.0879C10.8682 134.301 10.6574 134.388 10.502 134.544C10.3466 134.699 10.2594 134.91 10.2594 135.13L10.2655 145.62ZM10.2655 118.409C10.2671 118.629 10.3549 118.839 10.5099 118.994C10.665 119.149 10.8748 119.237 11.0941 119.238H41.9297C42.1495 119.238 42.3602 119.151 42.5156 118.995C42.671 118.84 42.7583 118.629 42.7583 118.409V107.895C42.7583 107.786 42.7368 107.679 42.6951 107.579C42.6534 107.479 42.5923 107.388 42.5152 107.311C42.4382 107.235 42.3468 107.174 42.2463 107.133C42.1458 107.092 42.0382 107.072 41.9297 107.072H11.0879C10.8692 107.072 10.6594 107.159 10.5042 107.313C10.349 107.467 10.261 107.676 10.2594 107.895L10.2655 118.409ZM10.2655 91.1994C10.2638 91.3087 10.2839 91.4173 10.3244 91.5188C10.365 91.6204 10.4252 91.7129 10.5016 91.7911C10.5781 91.8693 10.6693 91.9315 10.7699 91.9743C10.8705 92.0171 10.9786 92.0395 11.0879 92.0403H41.9297C42.0382 92.0411 42.1458 92.0204 42.2463 91.9795C42.3468 91.9385 42.4382 91.878 42.5152 91.8016C42.5923 91.7251 42.6534 91.6342 42.6951 91.534C42.7368 91.4338 42.7583 91.3263 42.7583 91.2178V80.6848C42.7583 80.4651 42.671 80.2543 42.5156 80.0989C42.3602 79.9435 42.1495 79.8562 41.9297 79.8562H11.0879C10.8687 79.8578 10.6588 79.9456 10.5038 80.1007C10.3488 80.2557 10.261 80.4656 10.2594 80.6848L10.2655 91.1994ZM10.2655 63.9831C10.2655 64.2029 10.3528 64.4137 10.5082 64.5691C10.6636 64.7245 10.8743 64.8118 11.0941 64.8118H41.9297C42.0387 64.8126 42.1469 64.7917 42.2478 64.7504C42.3486 64.709 42.4403 64.648 42.5174 64.5709C42.5945 64.4938 42.6555 64.4021 42.6969 64.3012C42.7382 64.2003 42.7591 64.0922 42.7583 63.9831V53.4932C42.7591 53.3841 42.7382 53.276 42.6969 53.1751C42.6555 53.0742 42.5945 52.9825 42.5174 52.9054C42.4403 52.8283 42.3486 52.7673 42.2478 52.7259C42.1469 52.6846 42.0387 52.6637 41.9297 52.6645H11.0879C10.8682 52.6645 10.6574 52.7518 10.502 52.9072C10.3466 53.0626 10.2594 53.2734 10.2594 53.4932L10.2655 63.9831Z" opacity="0.2"></path>
</svg>
